<?xml version="1.0"?>
<svg xmlns="http://www.w3.org/2000/svg" viewBox="0 0 512 512" width="512" height="512"><g id="outline"><path d="M256,280a64,64,0,1,0-64-64A64.072,64.072,0,0,0,256,280Zm0-112a48,48,0,1,1-48,48A48.054,48.054,0,0,1,256,168Z"/><path d="M318.5,61.107l-7.262-1.528q-7.833-1.65-15.789-2.714A39.446,39.446,0,0,0,256.61,24h-1.22A39.447,39.447,0,0,0,216.7,56.039,220.159,220.159,0,0,0,191.558,60.1q-8.44,1.876-16.628,4.392l-.076.023A220.139,220.139,0,0,0,28.635,211.573l-.46,1.531A288.538,288.538,0,0,0,16,296.059v78.8a8,8,0,0,0,10.127,7.712L32,380.954V458.74A37.258,37.258,0,0,0,87,491.5l62.259-33.729a219.2,219.2,0,0,1,212.255,1.92l52.167,29.478A37.339,37.339,0,0,0,461.819,479.1l2.729-3.637A37.455,37.455,0,0,0,472,453.11V378.747l13.873,3.827A8,8,0,0,0,496,374.862v-78.8A288.5,288.5,0,0,0,483.824,213.1,219.773,219.773,0,0,0,318.5,61.107ZM255.39,40h1.22a23.424,23.424,0,0,1,21.917,15.236c-4.194-.241-8.394-.374-12.59-.374H239.261q-2.838,0-5.675.078A23.424,23.424,0,0,1,255.39,40Zm-73.7,39.158q6.581-1.936,13.338-3.441a204.32,204.32,0,0,1,44.233-4.855h26.676a204.308,204.308,0,0,1,42,4.373l7.262,1.53c5.659,1.191,11.221,2.641,16.7,4.286l18.861,22.392a329.039,329.039,0,0,1,75.576,246.109L407.26,344.29a568.981,568.981,0,0,0-302.519,0l-19.084,5.264a329.1,329.1,0,0,1,75.582-246.111ZM32,364.356v-68.3A272.5,272.5,0,0,1,43.5,217.7l.459-1.531A204.128,204.128,0,0,1,150.7,91.121L149,93.138A345.1,345.1,0,0,0,69.753,351.305q.133,1.293.275,2.561ZM456,453.11a21.356,21.356,0,0,1-4.249,12.749L449.02,469.5a21.3,21.3,0,0,1-27.464,5.745l-52.168-29.479a235.193,235.193,0,0,0-227.748-2.06L79.385,477.434a21.258,21.258,0,0,1-25.157-3.661A21.118,21.118,0,0,1,48,458.74v-6.462a37,37,0,0,0,21.27,6.662A37.382,37.382,0,0,0,87,454.444l62.26-33.73a219.171,219.171,0,0,1,212.254,1.921l52.167,29.478A37.366,37.366,0,0,0,456,448.188Zm0-37.06a21.361,21.361,0,0,1-4.249,12.75l-2.73,3.64a21.3,21.3,0,0,1-27.465,5.745l-52.168-29.479a235.165,235.165,0,0,0-227.748-2.06L79.385,440.374a21.258,21.258,0,0,1-25.157-3.661A21.118,21.118,0,0,1,48,421.68V376.54l61-16.826a552.99,552.99,0,0,1,294.009,0l53,14.619Zm24-51.694-38.025-10.489c.039-.344.078-.678.118-1.03a345.123,345.123,0,0,0-78.946-259.52A203.76,203.76,0,0,1,468.5,217.7,272.494,272.494,0,0,1,480,296.059Z"/></g></svg>
