<svg id="Layer_1" enable-background="new 0 0 512.004 512.004" height="512" viewBox="0 0 512.004 512.004" width="512" xmlns="http://www.w3.org/2000/svg"><g><path d="m510.86 486.362s-246.003-469.997-246.005-469.995c-1.298-2.477-3.608-4.373-6.467-5.076-4.467-1.1-9.113.995-11.248 5.074l-246 470c-1.844 3.522-1.425 7.803 1.065 10.902 1.927 2.397 4.811 3.736 7.795 3.736.873 0 1.754-.115 2.623-.351l243.379-66.157 67.688 18.397c.87.24 1.75.36 2.63.36 4.5 0 8.47-3.04 9.65-7.38 1.44-5.32-1.709-10.83-7.029-12.28l-62.939-17.11v-354.81l216.519 413.67-66.73-18.14c-.86-.23-1.75-.35-2.631-.35-4.5 0-8.46 3.03-9.64 7.38-.7 2.58-.36 5.27.97 7.59 1.32 2.32 3.48 3.98 6.05 4.68l88.84 24.15c.85.23 1.74.35 2.63.35 3.04 0 5.88-1.36 7.78-3.73 2.5-3.11 2.92-7.38 1.07-10.91zm-264.858-424.69v354.815l-216.517 58.857z"/><circle cx="369.743" cy="455.052" r="10"/></g></svg>