<?xml version="1.0" encoding="iso-8859-1"?>
<!-- Generator: Adobe Illustrator 19.0.0, SVG Export Plug-In . SVG Version: 6.00 Build 0)  -->
<svg version="1.1" id="Layer_1" xmlns="http://www.w3.org/2000/svg" xmlns:xlink="http://www.w3.org/1999/xlink" x="0px" y="0px"
	 viewBox="0 0 512 512" style="enable-background:new 0 0 512 512;" xml:space="preserve">
<g>
	<g>
		<path d="M503.6,329.207c-8.011-6.394-19.302-6.515-27.455-0.292c-36.682,28.023-80.528,42.834-126.796,42.834
			c-8.644,0-17.346-0.534-25.867-1.59c-4.716-0.576-9.009,2.764-9.594,7.479c-0.584,4.715,2.764,9.01,7.479,9.594
			c9.22,1.143,18.635,1.721,27.981,1.721c50.075,0,97.532-16.034,137.236-46.364c1.867-1.423,4.451-1.398,6.282,0.066
			c1.833,1.464,2.433,3.977,1.457,6.11c-19.644,42.951-50.963,79.371-90.569,105.324c-40.644,26.631-87.924,40.708-136.729,40.708
			c-137.753,0-249.823-112.07-249.823-249.823c0-48.806,14.076-96.086,40.708-136.729c25.954-39.607,62.373-70.924,105.329-90.571
			c2.128-0.974,4.637-0.376,6.103,1.46c1.463,1.832,1.491,4.415,0.068,6.278c-30.333,39.709-46.365,87.165-46.365,137.237
			c0,101.641,68.47,191.403,166.509,218.287c4.576,1.258,9.314-1.439,10.569-6.021c1.257-4.581-1.439-9.314-6.021-10.569
			c-90.587-24.842-153.855-107.781-153.855-201.696c0-46.265,14.811-90.109,42.834-126.795c6.224-8.152,6.103-19.442-0.295-27.455
			c-6.403-8.021-17.387-10.638-26.708-6.368C110.177,23.025,71.255,56.493,43.523,98.815C15.05,142.269,0,192.809,0,244.973
			C0,392.212,119.788,512,267.027,512c52.163,0,102.703-15.05,146.158-43.524c42.323-27.732,75.79-66.655,96.785-112.558
			C514.236,346.592,511.618,335.609,503.6,329.207z"/>
	</g>
</g>
<g>
</g>
<g>
</g>
<g>
</g>
<g>
</g>
<g>
</g>
<g>
</g>
<g>
</g>
<g>
</g>
<g>
</g>
<g>
</g>
<g>
</g>
<g>
</g>
<g>
</g>
<g>
</g>
<g>
</g>
</svg>
