<svg height="681pt" viewBox="-55 -21 681 681.33352" width="681pt" xmlns="http://www.w3.org/2000/svg"><path d="m567.722656 112.535156c.484375-5.371094-2.644531-10.601562-7.621094-12.703125l-234.316406-98.851562c-10.078125-4.253907-20.632812 6.121093-16.542968 16.277343l32.878906 81.589844h-168.839844c-27.433594 0-53.777344 8.265625-76.195312 23.914063-19.921876 13.898437-35.476563 32.699219-45.355469 54.660156-29.789063.449219-53.890625 24.808594-53.890625 54.707031 0 29.898438 24.101562 54.257813 53.890625 54.707032 9.871093 21.933593 25.402343 40.714843 45.292969 54.613281 22.433593 15.675781 48.800781 23.957031 76.257812 23.957031h37.417969c16.132812 0 16.160156-25.128906 0-25.128906h-37.417969c-22.28125 0-43.675781-6.722656-61.863281-19.429688-14.734375-10.292968-26.523438-23.886718-34.558594-39.699218 18.019531-8.964844 30.433594-27.5625 30.433594-49.019532 0-21.453125-12.414063-40.054687-30.433594-49.019531 8.050781-15.835937 19.851563-29.441406 34.609375-39.738281 18.175781-12.683594 39.550781-19.390625 61.8125-19.390625h168.839844l-32.878906 81.59375c-4.082032 10.136719 6.441406 20.535156 16.542968 16.277343l234.3125-98.859374c4.234375-1.789063 7.21875-5.886719 7.625-10.457032.480469-5.371094-.40625 4.570313 0 0zm-515.15625 149.1875c-16.320312 0-29.597656-13.277344-29.597656-29.59375 0-16.320312 13.277344-29.59375 29.597656-29.59375 16.3125 0 29.59375 13.273438 29.59375 29.59375 0 16.316406-13.273437 29.59375-29.59375 29.59375zm440.53125-162.875h-123.882812l-25.371094-62.96875zm-149.253906 88.105469 25.371094-62.972656h123.882812zm0 0"/><path d="m452.191406 408.226562c-.808594 0-1.609375.027344-2.410156.0625-22.128906-41.566406-65.6875-68.011718-113.175781-68.011718h-24.683594c-16.136719 0-16.160156 25.128906 0 25.128906h24.683594c36.398437 0 69.929687 19.328125 88.394531 50.085938-16.4375 9.453124-27.535156 27.183593-27.535156 47.464843 0 22.125 13.210937 41.21875 32.15625 49.832031-16.925782 35.511719-52.964844 58.667969-93.011719 58.667969h-230.789063c-5.695312-24.140625-27.402343-42.160156-53.253906-42.160156-30.175781 0-54.726562 24.546875-54.726562 54.726563 0 30.175781 24.550781 54.726562 54.726562 54.726562 25.851563 0 47.558594-18.019531 53.253906-42.160156h230.785157c52.035156 0 98.609375-31.425782 118.351562-78.980469 28.898438-1.441406 51.964844-25.402344 51.964844-54.65625 0-30.175781-24.546875-54.726563-54.730469-54.726563zm-399.625 205.386719c-16.320312 0-29.597656-13.273437-29.597656-29.589843 0-16.320313 13.277344-29.59375 29.597656-29.59375 16.3125 0 29.59375 13.273437 29.59375 29.59375 0 16.316406-13.273437 29.589843-29.59375 29.589843zm399.625-121.066406c-16.3125 0-29.589844-13.273437-29.589844-29.59375 0-16.316406 13.277344-29.59375 29.589844-29.59375 16.324219 0 29.597656 13.277344 29.597656 29.59375 0 16.320313-13.273437 29.59375-29.597656 29.59375zm0 0"/><path d="m270.117188 361.722656c4.835937-4.828125 4.835937-12.9375 0-17.765625-4.832032-4.835937-12.933594-4.824219-17.765626 0-4.695312 4.6875-4.851562 12.484375-.371093 17.363281 4.753906 5.1875 13.148437 5.394532 18.136719.402344zm0 0"/></svg>